<svg xmlns="http://www.w3.org/2000/svg"  viewBox="0 0 24 24" width="24px" height="24px"><path d="M 18.564453 5.9921875 C 15.139926 6.0999003 11.384999 7.4229569 8.1523438 8.8222656 C 3.8421366 10.688011 0.46875 12.800781 0.46875 12.800781 A 1.0001 1.0001 0 0 0 1.2519531 14.617188 C 6.3307374 13.291557 9.5292738 13.059733 11.306641 13.359375 C 12.195324 13.509196 12.707948 13.778295 12.996094 14.039062 C 13.284239 14.299831 13.401936 14.562159 13.449219 14.935547 C 13.543789 15.682322 13.153884 16.853865 12.662109 17.785156 C 12.170335 18.716447 11.650391 19.384766 11.650391 19.384766 A 1.0001 1.0001 0 0 0 12.984375 20.837891 C 12.984375 20.837891 15.657703 19.103086 18.351562 16.818359 C 19.698493 15.675996 21.056986 14.396203 22.113281 13.083984 C 23.169577 11.771766 23.985141 10.434042 23.998047 8.96875 C 24.002842 8.4324118 23.877229 7.8265497 23.492188 7.3300781 C 23.107146 6.8336065 22.527432 6.513598 21.847656 6.3320312 C 20.811016 6.0553107 19.705962 5.9562832 18.564453 5.9921875 z M 18.640625 8.0273438 C 19.625149 7.9831078 20.53712 8.0522508 21.330078 8.2636719 C 21.732302 8.3711051 21.860901 8.4906122 21.912109 8.5566406 C 21.963319 8.6226686 22.00221 8.7025568 22 8.9492188 C 21.9944 9.5844271 21.48186 10.678266 20.554688 11.830078 C 19.627513 12.981891 18.347039 14.200207 17.058594 15.292969 C 16.151012 16.062711 16.036926 16.062623 15.240234 16.65625 C 15.406539 16.028129 15.518634 15.370572 15.431641 14.683594 C 15.335861 13.927231 14.988124 13.143139 14.337891 12.554688 C 13.68766 11.966236 12.787504 11.582351 11.638672 11.388672 C 10.559965 11.206815 9.1862224 11.214544 7.5527344 11.378906 C 8.2548801 11.03893 8.1663046 10.996255 8.9472656 10.658203 C 12.062985 9.309512 15.684926 8.1601465 18.640625 8.0273438 z"/></svg>